<?xml version="1.0" encoding="utf-8"?>
<!-- Generator: Adobe Illustrator 23.0.4, SVG Export Plug-In . SVG Version: 6.00 Build 0)  -->
<svg version="1.1" id="Ebene_1" xmlns="http://www.w3.org/2000/svg" xmlns:xlink="http://www.w3.org/1999/xlink" x="0px" y="0px"
	 viewBox="0 0 283.46 283.46" style="enable-background:new 0 0 283.46 283.46;" xml:space="preserve">
<style type="text/css">
	.st0{fill:#E5E149;}
	.st1{fill:#567A91;}
	.st2{fill:#7CAFDD;}
</style>
<g>
	
		<rect x="153.28" y="110.09" transform="matrix(0.7071 0.7071 -0.7071 0.7071 156.4241 -71.5792)" class="st0" width="22.68" height="85.88"/>
	
		<rect x="108.04" y="108.77" transform="matrix(0.7071 -0.7071 0.7071 0.7071 -72.8584 129.0746)" class="st0" width="22.68" height="87.43"/>
</g>
<g>
	
		<rect x="92.1" y="-4.59" transform="matrix(0.7071 0.7071 -0.7071 0.7071 73.1206 -55.4058)" class="st0" width="22.68" height="130.3"/>
	
		<rect x="168.54" y="-4.73" transform="matrix(0.7071 -0.7071 0.7071 0.7071 9.6258 145.026)" class="st0" width="22.68" height="131.24"/>
</g>
<rect x="130.39" y="162.39" class="st0" width="22.68" height="87.43"/>
<rect x="211.52" y="99.34" class="st0" width="22.68" height="84.03"/>
<g>
	
		<rect x="168.36" y="157.22" transform="matrix(0.7071 0.7071 -0.7071 0.7071 209.7201 -61.9956)" class="st0" width="22.68" height="129.87"/>
	
		<rect x="92.33" y="156.54" transform="matrix(0.7071 -0.7071 0.7071 0.7071 -126.5603 138.3017)" class="st0" width="22.68" height="130.76"/>
</g>
<g>
	<rect x="49.42" y="98.76" class="st1" width="22.68" height="84.72"/>
	<g>
		
			<rect x="70.23" y="80.54" transform="matrix(0.7071 -0.7071 0.7071 0.7071 -57.1979 91.2667)" class="st2" width="22.68" height="68.28"/>
		
			<rect x="75.4" y="120.95" transform="matrix(0.7071 0.7071 -0.7071 0.7071 140.2339 -13.7671)" class="st2" width="22.68" height="82.88"/>
	</g>
</g>
<g>
	
		<rect x="191" y="133.82" transform="matrix(-0.7071 0.7071 -0.7071 -0.7071 463.9758 143.1633)" class="st2" width="22.68" height="67.71"/>
	
		<rect x="185.84" y="79.21" transform="matrix(-0.7071 -0.7071 0.7071 -0.7071 251.5001 344.8869)" class="st2" width="22.68" height="82.3"/>
</g>
</svg>
